<?xml version="1.0" encoding="UTF-8"?>
<svg version="1.1" viewBox="0 0 1372 418" xml:space="preserve" xmlns="http://www.w3.org/2000/svg">
<style type="text/css">
	.st0{fill:#FFFFFF;}
	.st1{fill:#BE1010;}
	.st2{fill-rule:evenodd;clip-rule:evenodd;fill:#BE1010;}
	.st3{fill-rule:evenodd;clip-rule:evenodd;fill:#FFFFFF;}
</style>
	<g>
		
			<rect class="st0" x="6.15" y="6.09" width="759" height="405" fill="#fff"/>
			<path class="st1" d="m0.16 0.11v417h1372v-417zm765 411h-759v-405h759v405z" fill="#be1010"/>
			
				<path class="st1" d="m148 211h-41.6c-1.77-8.76-3.55-17.5-5.35-26.3-1.78-8.76-3.66-16.9-5.64-24.4-3.7-14.2-8.17-32-26.1-32v56c0 10.4 5.3 15.8 15.6 16.7v9.98h-58.7v-9.98c10.8-0.37 15.9-4.35 15.9-15.6v-128c0-10.4-5.85-15.9-15.9-17.5v-9.93h58.7v9.93c-10.5 1.18-15.6 5.21-15.6 16.2v60.3h4.96c2.04 0 4.18-0.48 6.4-1.48 2.22-0.96 4.2-2.92 6.01-5.93 3.66-6.01 6.42-12.2 8.25-18.3 1.83-6.19 3.42-12.5 4.76-19 1.51-7.15 2.9-13.2 4.13-18.2 1.22-4.97 3.65-10.4 7.26-16.3 1.81-3 3.99-5.36 6.58-7.1 2.61-1.74 5.46-2.61 8.56-2.61 5.12 0 9.14 2.17 12.1 6.53 2.26 3.31 3.56 7.33 4.12 12 0.17 1.44 0.28 2.95 0.32 4.52 0.54 26.3-24.9 28-28.8 6.14-1.54 2.66-2.87 6.71-4.02 12.2-1.15 5.49-2.21 10.3-3.18 14.3-1.98 8.46-3.92 14.9-5.82 19.2-1.88 4.4-4.05 8.02-6.5 10.9v2.31c7.16 3.14 13 8.33 17.8 15.6 4.7 7.24 8.49 16 11.4 26.4 1.25 4.53 2.58 9.33 3.94 14.4 1.34 5.06 2.54 9.37 3.55 12.9 3.06 10.8 6.1 14.8 16.9 16.1v10zm249-92.3c0.73 3.41 2.18 6.05 4.31 7.83 5.32 4.45 14.2 3.48 18-2.47 2.2-3.45 3.29-7.93 3.29-13.5 0-7.45-3.03-15.6-8.12-21.1-5.45-5.89-12.9-8.85-22.2-8.85-6.69 0-12.8 1.83-18.3 5.54-5.54 3.71-10.2 8.67-13.9 14.9-3.6 6.01-6.48 13-8.59 21s-3.18 16.4-3.18 25.3c0 9.72 0.86 18.7 2.61 26.9 1.72 8.28 4.36 15.4 7.86 21.4 3.53 5.97 8.02 10.7 13.4 14.1 5.43 3.45 11.7 5.19 18.8 5.19 4.39 0 8.23-0.92 11.6-2.7 3.31-1.78 6.58-4.4 9.79-7.88 3.06-3.36 5.7-7.15 7.89-11.5 2.2-4.27 4.08-9.02 5.67-14.2l-5.75-6.66c-2.61 7.75-5.56 13.7-8.91 18-3.34 4.23-7.86 6.32-13.5 6.32-5.93 0-11-4.62-15.3-13.9s-6.4-21.5-6.4-36.6c0-10.1 0.5-18.6 1.44-25.8s2.19-12.9 3.78-17.1c1.62-4.49 3.39-7.63 5.28-9.41 1.88-1.79 3.97-2.71 6.27-2.71 8.29 0 5.8 8.81 4.75 14-0.92 4.56-1.48 9.15-0.54 13.8zm-153 30.1c0 22.2-8.54 65.5-38.1 65.5-4.88 0-8.88-0.82-11.9-2.48s-5.59-3.66-7.58-6.06h-0.6v35.9c0 2.97 0.39 5.58 1.17 7.81 0.79 2.22 1.91 3.83 3.35 4.83 1.36 0.97 3.32 1.79 5.85 2.58 2.51 0.74 4.62 1.22 6.29 1.4v9.45h-55.2v-9.45c1.28-0.18 2.9-0.49 4.84-0.97 1.93-0.48 3.39-0.95 4.36-1.48 1.62-0.91 2.75-2.53 3.31-4.8 0.6-2.23 0.89-4.8 0.89-7.71v-131c-0.49-8.87-3.69-16-13.2-17.2v-9.33l37.3-3.32 1.15 1.66v14.2l0.6 0.26c3.37-5.71 7.11-10.2 11.2-13.3 4.13-3.14 8.18-4.71 12.2-4.71 29.9 0 34.2 47.1 34.2 67.9zm-27.4 0.52c0-11.1-0.12-49-17.6-49-6.7 0-10.5 4.74-13.2 10.3v72.4c1.34 7.28 4.69 19.8 14.1 19.8 17 0.01 16.7-43.9 16.7-53.5zm125 59c-2.25 1.65-4.91 3.14-7.96 4.49-3.06 1.35-6.3 2.04-9.72 2.04-6.27 0-10.9-1.56-13.8-4.66-2.98-3.09-4.99-7.54-6.06-13.3h-0.44c-1.75 2.88-3.43 5.36-5.02 7.41-1.62 2.04-3.34 3.79-5.17 5.22-2.4 1.88-4.7 3.27-6.92 4.14-2.22 0.93-5.33 1.36-9.3 1.36-5.93 0-11-2.93-15.2-8.76-4.18-5.84-6.29-13.6-6.29-23.2 0-5.53 0.47-10.2 1.39-14.1 0.91-3.88 2.21-7.32 3.92-10.3 1.51-2.75 3.29-4.97 5.3-6.76 2.01-1.78 4.23-3.48 6.63-5.01 4.57-2.79 10.1-5.71 16.5-8.72 6.45-3.05 11.1-5.75 14.1-8.1v-12.3c0-2.14-0.11-4.93-0.31-8.41-0.21-3.49-0.66-6.45-1.31-8.8-0.7-2.75-1.83-5.01-3.37-6.89-1.55-1.87-3.55-2.83-6.03-2.83-2.25 0-4.13 0.53-5.64 1.61-4.39 3.08-3.33 8.71-2.25 14.1 0.89 4.46 1.22 7.95 0.32 12.4-0.73 3.42-2.19 6.05-4.32 7.84-5.31 4.45-14.2 3.47-18-2.47-2.19-3.44-3.29-7.93-3.29-13.5 0-8.89 4.73-16.9 11.7-22.2 3.21-2.52 6.92-4.53 11.1-5.93 4.18-1.39 8.07-2.09 11.6-2.09 4.93 0 9.48 0.48 13.6 1.44 4.13 1 7.86 3 11.2 6.1 3.15 2.97 5.66 7.28 7.51 12.9 1.88 5.67 2.79 13 2.79 22.1 0 9.63-0.1 21-0.33 34.2-0.24 13.2-0.34 21.9-0.34 26.1 0 3.84 0.34 6.85 1.02 9.07 0.7 2.22 1.75 3.88 3.18 4.97 0.86 0.7 2.22 1.08 4.1 1.22 1.86 0.13 3.55 0.21 5.1 0.21zm-38-66.5c-2.87 1.61-5.7 3.49-8.52 5.58-2.79 2.05-5.09 4.27-6.87 6.54-1.91 2.4-3.37 5.45-4.44 9.16s-1.62 8.06-1.62 13.1c0 6.67 0.92 11.5 2.72 14.4 1.83 3 4.05 4.49 6.71 4.49 2.79 0 5.09-0.96 6.92-2.88 1.81-1.92 3.4-4.27 4.79-7.1zm229 69.2h-46.5v-9.33c0.86-0.26 1.93-0.57 3.21-0.96s2.43-1.09 3.45-2.09c1.22-1.23 2.06-2.66 2.56-4.4 0.47-1.75 0.73-4.27 0.73-7.63v-36.6h-28.6v36.6c0 3 0.26 5.44 0.75 7.41 0.52 1.96 1.36 3.49 2.54 4.62 0.81 0.74 1.83 1.39 3.03 1.92 1.2 0.48 2.4 0.87 3.63 1.13v9.33h-46.5v-9.33c1.26-0.18 2.56-0.39 3.87-0.7 1.28-0.3 2.4-0.7 3.32-1.22 1.64-0.92 2.77-2.39 3.37-4.31 0.6-1.96 0.91-4.53 0.91-7.67v-80.2c0-2.97-0.31-5.53-0.96-7.58-0.63-2.09-1.72-3.57-3.31-4.4-1.33-0.69-2.56-1.13-3.68-1.35-1.13-0.22-2.28-0.4-3.5-0.57v-9.33h46.5v9.33c-1.23 0.22-2.35 0.57-3.4 0.96-1.07 0.34-2.14 1.04-3.26 2.09-1.23 1.08-2.09 2.66-2.56 4.7-0.49 2.05-0.73 4.49-0.73 7.28v29.4h28.6v-29.4c0-2.79-0.24-5.19-0.71-7.19-0.44-2-1.3-3.61-2.58-4.79-0.97-0.96-2.09-1.62-3.34-2.05-1.26-0.43-2.35-0.78-3.32-1v-9.33h46.5v9.33c-1.52 0.17-2.8 0.35-3.81 0.61-1.02 0.27-2.14 0.7-3.37 1.31-1.49 0.74-2.56 2.14-3.27 4.14-0.68 2.01-1.02 4.62-1.02 7.85v80.2c0 3.05 0.32 5.63 0.94 7.72 0.65 2.09 1.75 3.53 3.34 4.27 1.23 0.61 2.3 1.05 3.24 1.27 0.94 0.27 2.27 0.48 3.94 0.65v9.31zm87.3-112c3.79 5.88 6.66 12.9 8.64 21.1 1.99 8.15 2.98 17 2.98 26.5 0 9.46-0.96 18.4-2.92 26.8-1.99 8.37-4.83 15.6-8.62 21.5-4.02 6.36-8.83 11.2-14.4 14.7-5.59 3.4-12 5.1-19.2 5.1-6.22 0-12-1.49-17.2-4.49-5.22-2.97-9.84-7.45-13.9-13.4-3.87-5.71-6.92-12.8-9.17-21.1-2.25-8.41-3.37-17.8-3.37-28.2 0-10.2 0.99-19.3 2.95-27.3 1.96-7.93 4.91-15 8.83-21.3 3.79-5.93 8.43-10.6 14-13.8 5.54-3.31 11.7-4.92 18.5-4.92 7.16 0 13.4 1.61 18.8 4.92 5.43 3.27 10.1 7.88 14 13.8zm-19.6 88.5c1.13-4.79 1.96-10.6 2.48-17.4 0.55-6.8 0.81-14.7 0.81-23.8 0-5.93-0.26-12.8-0.75-20.4-0.53-7.67-1.28-13.7-2.3-18.1-1.23-5.36-2.93-9.59-5.09-12.6-2.16-3.09-4.91-4.62-8.22-4.62-3.63 0-6.5 1.65-8.67 4.97-2.16 3.36-3.84 7.63-5.01 12.9-1.07 4.88-1.83 10.6-2.22 17-0.42 6.54-0.62 13.3-0.62 20.4 0 9.28 0.18 17 0.54 23 0.37 6.1 1.23 12.2 2.58 18.4 1.17 5.27 2.88 9.46 5.07 12.5 2.2 3.05 4.96 4.58 8.33 4.58 3.05 0 5.69-1.39 7.89-4.27 2.18-2.83 3.9-7.01 5.18-12.6zm123-7.4c-1.78 4.83-3.94 9.41-6.45 13.7-2.53 4.27-5.41 7.97-8.61 11-3.42 3.23-6.87 5.71-10.4 7.37-3.5 1.65-7.49 2.48-12 2.48-7.55 0-14.1-1.78-19.6-5.36-5.48-3.57-10-8.41-13.6-14.4-3.55-6.06-6.24-13.2-7.99-21.4-1.75-8.24-2.64-17.1-2.64-26.8 0-8.68 0.96-17 2.87-25 1.9-7.93 4.62-15 8.15-21.2 3.47-6.06 7.83-10.9 13.1-14.7 5.28-3.74 11.2-5.62 17.7-5.62 7.13 0 13 1.44 17.6 4.32 4.6 2.92 8.41 6.92 11.4 12 2.9 4.84 5.02 10.6 6.35 17.2 1.34 6.58 1.99 13.5 1.99 20.8v8.28h-51.7c0 17.5 2.01 30.7 6.04 39.8 4.04 9.11 10.4 13.7 19.2 13.7 4.78 0 9.09-2.18 12.9-6.58 3.81-4.4 7.08-9.94 9.79-16.6zm-29.2-48.5c0-5.14-0.16-10.4-0.45-15.7-0.31-5.36-0.86-9.72-1.61-13.2-0.86-3.97-2.06-7.02-3.55-9.07-1.52-2.01-3.43-3.05-5.7-3.05-3.94 0-7.07 3.31-9.42 9.98-2.35 6.62-3.61 17.1-3.81 31.5z" fill="#be1010"/>
				<path class="st2" d="m766 306c-3.94 1.56-8.05 2.34-12.3 2.34-9.53 0-17.3-3.72-23.4-11.1-6.09-7.44-9.14-17.1-9.14-29 0-5.94 0.54-11 1.64-15.3 1.1-4.24 2.87-8.53 5.33-12.8 2.35-4.1 5.24-7.78 8.72-11.1 3.47-3.27 7.36-6.35 11.7-9.21-4.6-8.38-7.79-15.5-9.62-21.4-1.8-5.9-2.71-11.9-2.71-18.1 0-10.6 3.05-19.3 9.19-26.2 5.8-6.49 12.7-9.94 20.7-10.3v11.8c-1.24 0.76-2.34 1.85-3.3 3.28-2.04 3.05-3.06 7.03-3.06 12 0 4.25 0.94 9.1 2.82 14.5 0.93 2.67 2.11 5.61 3.54 8.83v57.2c-4.93-8.54-9.55-16.7-13.8-24.6-2.72 3.83-4.67 8.31-5.88 13.4-1.18 5.11-1.78 10.2-1.78 15.4 0 9.78 2.17 17.7 6.5 23.9 4.01 5.7 9.02 8.77 15 9.2v17.1z" clip-rule="evenodd" fill="#be1010" fill-rule="evenodd"/>
				<g fill="#fff">
					<path class="st0" d="m1304 308c0-5.15-0.16-10.4-0.44-15.7-0.31-5.36-0.87-9.71-1.62-13.2-0.86-3.96-2.06-7.02-3.55-9.07-1.52-2.01-3.42-3.05-5.7-3.05-3.94 0-7.07 3.31-9.42 9.98-2.35 6.63-3.61 17.1-3.82 31.5zm29.2 48.5c-1.78 4.84-3.95 9.41-6.45 13.7-2.53 4.27-5.4 7.98-8.62 11-3.42 3.22-6.87 5.7-10.4 7.36s-7.49 2.49-12 2.49c-7.55 0-14.1-1.79-19.6-5.37-5.48-3.57-10-8.41-13.6-14.4-3.56-6.05-6.24-13.2-8-21.4-1.74-8.23-2.63-17.1-2.63-26.8 0-8.67 0.96-17 2.87-25 1.9-7.94 4.62-15 8.15-21.2 3.48-6.05 7.83-10.9 13.1-14.7 5.28-3.75 11.2-5.62 17.7-5.62 7.13 0 13 1.43 17.6 4.31 4.59 2.92 8.41 6.93 11.4 12 2.89 4.83 5.01 10.5 6.35 17.2 1.34 6.58 1.97 13.5 1.97 20.7v8.29h-51.7c0 17.5 2.01 30.7 6.03 39.8 4.05 9.11 10.4 13.7 19.2 13.7 4.78 0 9.09-2.18 12.9-6.58 3.81-4.4 7.07-9.93 9.79-16.6z"/>
					<path class="st0" d="m1210 364c1.12-4.79 1.95-10.5 2.48-17.4 0.54-6.8 0.81-14.7 0.81-23.8 0-5.92-0.26-12.8-0.76-20.4-0.52-7.67-1.28-13.7-2.3-18.1-1.22-5.37-2.92-9.59-5.09-12.6-2.16-3.09-4.91-4.62-8.22-4.62-3.63 0-6.5 1.66-8.67 4.97-2.17 3.36-3.84 7.63-5.02 12.9-1.06 4.89-1.82 10.6-2.22 17-0.42 6.54-0.63 13.3-0.63 20.4 0 9.28 0.19 17 0.55 23 0.36 6.1 1.23 12.2 2.58 18.4 1.18 5.27 2.88 9.46 5.07 12.5s4.96 4.58 8.33 4.58c3.05 0 5.69-1.4 7.88-4.28 2.21-2.81 3.94-7 5.21-12.5zm19.6-88.5c3.78 5.88 6.66 12.9 8.64 21.1 1.99 8.16 2.98 17 2.98 26.5 0 9.47-0.97 18.4-2.94 26.8-1.98 8.38-4.82 15.6-8.61 21.5-4.02 6.36-8.82 11.2-14.4 14.7-5.58 3.39-12 5.1-19.2 5.1-6.22 0-12-1.48-17.2-4.49-5.23-2.96-9.84-7.45-13.9-13.4-3.86-5.7-6.92-12.8-9.17-21.1-2.24-8.41-3.36-17.8-3.36-28.2 0-10.2 0.99-19.3 2.95-27.3 1.95-7.93 4.91-15 8.82-21.3 3.79-5.93 8.44-10.5 14-13.8 5.54-3.31 11.7-4.92 18.6-4.92 7.16 0 13.4 1.61 18.8 4.92 5.44 3.3 10.1 7.92 14 13.8z"/>
					<path class="st0" d="m1012 308c0-5.15-0.16-10.4-0.44-15.7-0.32-5.36-0.87-9.71-1.62-13.2-0.86-3.96-2.06-7.02-3.55-9.07-1.51-2.01-3.42-3.05-5.69-3.05-3.95 0-7.08 3.31-9.43 9.98-2.35 6.63-3.6 17.1-3.82 31.5zm22.6 62.6-0.02 0.03-0.06 0.12-0.08 0.12-0.07 0.12-0.01 0.02-0.07 0.09-0.05 0.09-0.01 0.02-0.08 0.12-0.03 0.05-0.04 0.07-0.07 0.11-0.01 0.01-0.07 0.11-0.06 0.08-0.09 0.14-0.02 0.05-0.04 0.07-0.07 0.11-0.01 0.01-0.07 0.11-0.05 0.09-0.02 0.02-0.07 0.12-0.02 0.04-0.04 0.07-0.29 0.45-0.03 0.04-0.05 0.08-0.07 0.11-0.07 0.12-0.05 0.07-0.02 0.04-0.15 0.21-0.07 0.11-0.23 0.33-0.03 0.04-0.25 0.35-0.03 0.04-0.1 0.13-0.05 0.07-0.07 0.11c-0.34 0.46-0.68 0.91-1.01 1.35l-0.02 0.02-0.06 0.08-0.72 0.9c-1.21 1.48-2.48 2.85-3.8 4.11-3.43 3.22-6.88 5.7-10.4 7.36-3.5 1.66-7.49 2.49-12 2.49-7.54 0-14.1-1.79-19.6-5.37-5.49-3.57-10-8.41-13.6-14.4-3.55-6.05-6.24-13.2-7.99-21.4-1.76-8.23-2.64-17.1-2.64-26.8 0-8.67 0.96-17 2.87-25 1.91-7.94 4.62-15 8.15-21.2 3.47-6.05 7.83-10.9 13.1-14.7s11.2-5.62 17.7-5.62c7.13 0 13 1.43 17.6 4.31 4.6 2.92 8.41 6.93 11.4 12 2.89 4.83 5.01 10.5 6.34 17.2 1.34 6.58 1.99 13.5 1.99 20.7v8.29h-51.7c0 17.5 2.01 30.7 6.03 39.8 4.05 9.11 10.4 13.7 19.2 13.7 2.54 0 4.93-0.6 7.18-1.83l0.04-0.02 0.06-0.04 0.09-0.05 0.05-0.04 0.05-0.02 0.09-0.05 0.09-0.06 0.1-0.06 0.07-0.04 0.02-0.01 0.1-0.06 0.08-0.05 0.01-0.01 0.18-0.12 0.1-0.06 0.09-0.06 0.01-0.01 0.08-0.05 0.09-0.07 0.02-0.01 0.07-0.05 0.09-0.07 0.04-0.02 0.15-0.1 0.05-0.04 0.05-0.03 0.09-0.07 0.05-0.04 0.03-0.02 0.09-0.08 0.07-0.04 0.03-0.02 0.1-0.06 0.07-0.06 0.02-0.02 0.09-0.07 0.08-0.06v-0.01l0.09-0.07 0.09-0.08 0.01-0.01 0.18-0.14 0.02-0.01 0.07-0.06 0.09-0.07 0.03-0.02 0.06-0.05 0.09-0.08 0.03-0.04 0.05-0.04 0.09-0.08 0.05-0.04 0.04-0.04 0.09-0.08 0.06-0.05 0.03-0.03 0.16-0.14 0.02-0.01 0.09-0.08 0.07-0.08h0.01l0.18-0.17 0.17-0.17v-0.01l0.18-0.18 0.06-0.07 0.09-0.08 0.03-0.04 0.14-0.14 0.04-0.05 0.13-0.13 0.05-0.07 0.04-0.03 0.09-0.09 0.05-0.07 0.02-0.02 0.09-0.1 0.07-0.08 0.02-0.01 0.08-0.1 0.09-0.1 0.16-0.18 0.02-0.02 0.14-0.17 0.03-0.04 0.12-0.15 0.06-0.06 0.1-0.12 0.07-0.09 0.08-0.1 0.09-0.12 0.07-0.08 0.1-0.13 0.05-0.06 0.13-0.16 0.02-0.04 0.14-0.18 0.02-0.02 0.3-0.39 0.02-0.02 0.13-0.17 0.04-0.05 0.11-0.15 0.16-0.21 0.07-0.09 0.07-0.11 0.15-0.2 0.11-0.15 0.05-0.06 0.12-0.17 0.03-0.04 0.14-0.2 0.01-0.01 0.15-0.22v-0.01l0.14-0.21 0.03-0.04 0.12-0.18 0.05-0.06 0.1-0.15 0.06-0.08 0.09-0.13 0.07-0.12 0.07-0.11 0.09-0.13 0.06-0.08 0.1-0.16 0.04-0.06 0.14-0.22 0.14-0.21v-0.01l0.43-0.68 0.04-0.07 0.1-0.16 0.06-0.09 0.08-0.14 0.07-0.11 0.07-0.12 0.09-0.14 0.05-0.09 0.1-0.17 0.03-0.07 0.12-0.2 0.02-0.03 0.13-0.23 0.01-0.01 0.13-0.24 0.01-0.02 0.12-0.22 0.03-0.05 0.1-0.19 0.05-0.07 0.09-0.17 0.06-0.1 0.14-0.28 0.07-0.11 0.09-0.17 0.04-0.08 0.11-0.19 0.02-0.06 0.12-0.22 0.02-0.02 0.13-0.26 0.12-0.26 0.02-0.02 0.12-0.22 0.02-0.06 0.1-0.2 0.04-0.09 0.08-0.17 0.2-0.4 0.05-0.11 0.12-0.27 0.1-0.2 0.02-0.06 0.12-0.24v-0.02l0.12-0.26 0.13-0.27 0.02-0.03 0.1-0.24 0.03-0.06 0.09-0.2 0.04-0.1 0.08-0.18 0.06-0.13 0.06-0.14c0.29-0.66 0.58-1.33 0.85-2.02l5.8 7.02c-1.77 4.84-3.94 9.41-6.45 13.7z"/>
					<path class="st0" d="m949 333c0 9.02-1.18 17-3.55 24-2.38 6.97-5.59 12.8-9.69 17.3-3.97 4.35-8.33 7.58-13.1 9.72-4.78 2.13-9.74 3.18-14.9 3.18h-65.3v-9.98c1.49-0.21 3.45-0.61 5.9-1.05 2.43-0.48 4.15-1.05 5.12-1.74 1.83-1.18 3.1-2.83 3.84-4.97 0.7-2.14 1.07-4.88 1.07-8.19v-128c0-9.79-5.97-16.8-15.9-18.9v-8.53h97v51.8h-5.9c-2.28-9.84-5.12-18.6-8.52-26.3-3.4-7.66-6.42-11.8-9.06-12.5-1.65-0.53-3.53-0.92-5.67-1.18-2.13-0.27-4.33-0.4-6.58-0.4h-18.1v64.6c2.33-0.08 4.94-0.26 7.79-0.43 2.88-0.22 5.62-0.35 8.28-0.35 6.79 0 13 0.91 18.5 2.7 5.56 1.79 10.5 4.75 14.9 8.94 4.29 4.01 7.67 9.28 10.2 15.9 2.49 6.59 3.75 14.6 3.75 24.1zm-30.2 1.79c0-13.1-2.22-23.1-6.69-30.1-4.47-6.94-10.9-10.4-19.2-10.4-0.96 0-2.25 0.09-3.79 0.22-1.57 0.12-2.72 0.22-3.48 0.3v69.5c0.45 3.32 1.86 6.02 4.24 8.11s5.26 3.09 8.62 3.09c6.06 0 11-3.57 14.7-10.8 3.74-7.19 5.62-17.2 5.62-29.9z"/>
					<path class="st0" d="m1056 390c-11.6 0-15.2-14-15.3-23.1-0.54-26.3 23.7-28 27.6-6.14 1.53-2.67 2.86-6.71 4.01-12.2l0.59-2.76v-0.25c1.18-4.94 2.26-10.5 3.23-16.5 2.12-13.2 3.15-27 3.15-41.3 0-9.91-3.46-17-13.9-18.3v-9.33h76.6v9.33c-8.75 0.98-11.5 4.8-11.5 13.9v80.2c0 3.05 0.35 5.62 0.97 7.71 0.63 2.09 1.75 3.53 3.32 4.28 1.22 0.61 2.32 1.05 3.26 1.26 0.94 0.27 2.24 0.48 3.94 0.65v9.33h-48.2v-9.33c1.29-0.18 2.59-0.39 3.92-0.69 1.31-0.31 2.43-0.7 3.35-1.22 1.65-0.92 2.77-2.4 3.42-4.32 0.63-1.96 0.94-4.54 0.94-7.67v-91.2h-17.1c-0.26 21.3-1.38 39.4-3.37 54.5-0.47 3.54-0.96 6.91-1.48 10.1s-1.07 6.27-1.65 9.17c-2.71 13.5-6.62 43.8-25.7 43.8z"/>
					<path class="st3" d="m841 305h-45c-1.23-1.98-2.82-4.58-4.75-7.78-1.94-3.19-3.6-6.01-4.96-8.53-5.41 7.22-10.8 12.4-16.2 15.5-1.59 0.93-3.21 1.71-4.86 2.36v-17.1c0.49 0.03 1 0.05 1.51 0.05 3.13 0 5.82-0.56 8.12-1.73 2.3-1.13 4.76-3.19 7.34-6.2-4.28-7.41-9.27-16-14.9-25.9-0.68-1.18-1.35-2.34-2.03-3.51v-57.2c1.48 3.31 3.21 6.92 5.19 10.8 3.89-3.87 6.71-8.42 8.54-13.6 1.8-5.19 2.71-10.6 2.71-16.3 0-6.43-1.1-11.5-3.26-15.2-2.17-3.72-4.99-5.56-8.43-5.56-1.76 0-3.35 0.42-4.75 1.27v-11.8c0.43-0.02 0.87-0.03 1.3-0.03 7.94 0 14.4 2.75 19.4 8.16 4.94 5.45 7.42 12.6 7.42 21.6 0 7.78-1.49 14.8-4.44 20.9-2.95 6.13-7.88 12.1-14.8 18 5.56 10.3 9.85 18 12.9 23.2 3.06 5.18 7.08 12 12.2 20.4 3.2-6.84 5.61-13.1 7.23-18.8 1.59-5.75 2.4-10.5 2.4-14.4 0-2.22-1.14-3.99-3.38-5.34-2.28-1.35-5.49-2.63-9.62-3.79v-8.39h42.8v8.39c-4.65 0.56-8.1 1.38-10.3 2.39-2.19 1.06-4.39 3.13-6.53 6.28-0.92 1.32-2.06 3.65-3.4 6.99-1.36 3.35-2.63 6.58-3.87 9.66-1.49 3.73-3.08 7.67-4.75 11.8-1.67 4.13-3.74 8.42-6.11 12.9 4.67 7.93 8.54 13.9 11.6 17.8 3.03 3.95 5.51 6.61 7.44 8.08 2.19 1.69 4.99 3.05 8.33 4.02 3.38 1.02 6.72 1.66 10 1.95v8.8z" clip-rule="evenodd" fill-rule="evenodd"/>
				</g>		
	</g>
</svg>
