<svg version="1.1" id="Layer_1" xmlns="http://www.w3.org/2000/svg" xmlns:xlink="http://www.w3.org/1999/xlink" x="0px" y="0px"
	 width="100%" viewBox="0 0 434 120" enable-background="new 0 0 434 120" xml:space="preserve">
<path fill="#D92630" opacity="1.000000" stroke="none" 
	d="
M412.000000,121.000000 
	C275.060944,121.000000 138.121918,121.000000 1.091437,121.000000 
	C1.091437,81.078941 1.091437,41.157604 1.091437,1.118134 
	C145.666595,1.118134 290.333282,1.118134 435.000000,1.118134 
	C435.000000,7.400906 435.000000,13.731410 434.610168,20.358253 
	C433.881927,21.000834 433.310608,21.304688 433.238739,21.699434 
	C430.463989,36.946781 427.763641,52.207657 424.991547,67.455498 
	C422.366852,81.892357 419.869171,96.357574 416.872711,110.717888 
	C416.119659,114.327042 413.669983,117.582169 412.000000,121.000000 
M60.910492,98.027428 
	C62.606838,97.963501 64.303185,97.899574 66.869919,98.078964 
	C83.604828,97.584282 97.257629,90.770935 106.758316,77.041695 
	C117.753571,61.152664 118.483978,43.600250 113.384186,25.407452 
	C112.417175,21.957796 110.381065,22.087347 107.720901,22.461843 
	C85.615021,25.573895 69.976234,37.037376 61.965454,57.074017 
	C57.581501,52.981392 52.990734,48.535580 48.214325,44.299057 
	C45.515369,41.905167 43.175499,42.626705 41.316010,45.702213 
	C35.746288,54.914288 34.427914,64.801590 37.465599,74.975060 
	C39.291763,81.091049 42.121410,86.972694 48.757214,90.604424 
	C52.527519,93.039581 56.297825,95.474739 60.910492,98.027428 
M350.189178,63.630833 
	C349.314331,64.614006 348.439484,65.597183 346.801605,67.437866 
	C348.676086,56.876358 350.324005,47.591404 352.211700,36.955521 
	C346.725677,36.955521 341.827271,37.066788 336.936676,36.919178 
	C333.237946,36.807549 331.659393,38.443367 331.111053,42.056454 
	C329.813141,50.608910 328.214050,59.116234 326.696411,67.634613 
	C325.041718,76.921982 323.341583,86.201241 321.501068,96.369064 
	C326.104828,96.597801 330.022430,96.763077 333.936096,96.994499 
	C338.595154,97.270004 342.143372,95.770309 344.962402,91.731110 
	C348.385651,86.826126 352.417511,82.343712 356.220245,77.706551 
	C358.895264,74.444565 361.627441,71.229446 364.334076,67.993401 
	C364.621185,68.160271 364.908264,68.327141 365.195374,68.494019 
	C363.655945,77.574692 362.116547,86.655373 360.418152,96.673813 
	C366.612518,96.673813 371.911865,96.962418 377.140839,96.483276 
	C378.556183,96.353592 380.540436,94.086525 380.921631,92.481758 
	C382.457672,86.014877 383.498413,79.428574 384.666809,72.876526 
	C386.728729,61.313984 388.750183,49.744228 391.021667,36.854893 
	C386.042389,36.854893 381.783478,37.003567 377.539856,36.812984 
	C373.314819,36.623241 370.408447,38.275585 367.844086,41.656803 
	C362.310028,48.953651 356.403870,55.968281 350.189178,63.630833 
M171.256439,34.921650 
	C149.634171,34.414574 134.295685,46.011955 130.384628,65.824707 
	C127.403435,80.926918 133.165619,92.522690 145.637817,96.520187 
	C166.918716,103.340958 190.585205,89.256767 194.740189,67.298805 
	C198.150360,49.276970 189.507416,36.897667 171.256439,34.921650 
M251.747192,75.751785 
	C249.868164,71.507866 246.072601,66.978233 246.650665,63.100605 
	C247.225418,59.244999 252.175690,56.026878 255.246964,52.564419 
	C256.793823,50.820534 258.437561,49.162910 260.021698,47.451679 
	C262.766510,44.486607 265.499115,41.510185 269.258087,37.429974 
	C264.783630,37.153824 261.837341,37.089050 258.919098,36.768692 
	C251.775909,35.984524 246.119507,37.977695 241.576599,44.005966 
	C237.753098,49.079636 232.954758,53.418678 228.587936,58.082924 
	C228.310120,57.894932 228.032288,57.706944 227.754456,57.518951 
	C228.846848,51.033676 229.939255,44.548397 231.220963,36.939247 
	C225.778534,36.939247 221.006012,37.100220 216.249954,36.889717 
	C212.247192,36.712551 210.767792,38.607857 210.163040,42.323593 
	C208.399857,53.157047 206.357697,63.944954 204.444534,74.754189 
	C203.210861,81.724365 202.011734,88.700653 200.631943,96.622551 
	C206.866440,96.622551 212.310989,96.863274 217.704544,96.445450 
	C218.979172,96.346703 220.804016,94.197319 221.141205,92.711151 
	C222.731522,85.701607 223.892731,78.594704 225.474075,70.085396 
	C226.888000,72.707718 227.756729,74.043724 228.361984,75.489990 
	C230.735413,81.161278 232.970978,86.890762 235.388428,92.542732 
	C235.939926,93.832153 236.837387,95.713600 237.874115,95.936920 
	C245.319794,97.540810 252.795975,97.655975 260.737915,95.617958 
	C257.647034,88.823532 254.833878,82.639626 251.747192,75.751785 
M307.371735,58.995651 
	C302.446747,58.995651 297.521759,58.995651 292.255829,58.995651 
	C292.787689,55.962059 293.209320,53.557201 293.685394,50.841782 
	C301.376892,50.841782 308.694763,50.962833 316.002319,50.742104 
	C317.507202,50.696648 319.940308,49.678009 320.280975,48.587761 
	C321.417755,44.950054 321.798370,41.076057 322.520569,36.999905 
	C307.703918,36.999905 294.058350,37.043331 280.413452,36.970276 
	C276.870972,36.951309 275.506195,38.605888 275.002747,41.988323 
	C273.949829,49.062126 272.511322,56.077991 271.267334,63.124027 
	C269.365479,73.896065 267.494141,84.673492 265.494476,96.108360 
	C268.787903,96.443253 271.536407,96.937897 274.289337,96.964211 
	C284.454559,97.061417 294.621246,97.004402 304.787384,97.004135 
	C311.919342,97.003952 311.918396,97.002899 313.153625,89.695381 
	C313.292480,88.873909 313.447510,88.055153 313.598114,87.235695 
	C314.232605,83.783684 313.409973,81.961136 309.284912,82.137215 
	C302.330261,82.434067 295.353729,82.218597 288.349762,82.218597 
	C289.214172,73.004372 289.214172,73.004372 297.761810,73.004349 
	C299.595062,73.004349 301.428284,73.004356 303.261536,73.004341 
	C311.608856,73.004257 312.707336,71.952209 313.080505,63.444714 
	C313.137207,62.151348 312.976166,60.848431 312.922211,59.686447 
	C312.397919,59.398563 312.123566,59.128857 311.832001,59.108788 
	C310.670349,59.028835 309.503296,59.026649 307.371735,58.995651 
M204.736023,22.266735 
	C202.928452,23.133318 199.915253,23.634708 199.522919,24.929970 
	C197.862595,30.411280 196.981689,36.128677 195.559830,42.996510 
	C198.427551,42.261433 201.234055,42.400043 202.091568,41.174706 
	C205.943924,35.669880 209.242493,29.777529 213.183731,23.296644 
	C210.012894,22.853016 207.779739,22.540575 204.736023,22.266735 
M357.952118,35.367832 
	C357.547882,37.446148 357.143646,39.524464 356.509796,42.783157 
	C359.197266,42.221867 362.044128,42.476044 362.848053,41.315300 
	C366.728882,35.711899 370.059784,29.727633 373.677856,23.725691 
	C363.223480,20.435516 360.797882,21.778017 358.877380,31.157133 
	C358.645233,32.290699 358.337708,33.408833 357.952118,35.367832 
z"/>
<path fill="#000000" opacity="1.000000" stroke="none" 
	d="
M412.468750,121.000000 
	C413.669983,117.582169 416.119659,114.327042 416.872711,110.717888 
	C419.869171,96.357574 422.366852,81.892357 424.991547,67.455498 
	C427.763641,52.207657 430.463989,36.946781 433.238739,21.699434 
	C433.310608,21.304688 433.881927,21.000834 434.610168,20.827297 
	C435.000000,54.214294 435.000000,87.428589 435.000000,121.000000 
	C427.649689,121.000000 420.293579,121.000000 412.468750,121.000000 
z"/>
<path fill="#FFFCFC" opacity="1.000000" stroke="none" 
	d="
M350.419586,63.364609 
	C356.403870,55.968281 362.310028,48.953651 367.844086,41.656803 
	C370.408447,38.275585 373.314819,36.623241 377.539856,36.812984 
	C381.783478,37.003567 386.042389,36.854893 391.021667,36.854893 
	C388.750183,49.744228 386.728729,61.313984 384.666809,72.876526 
	C383.498413,79.428574 382.457672,86.014877 380.921631,92.481758 
	C380.540436,94.086525 378.556183,96.353592 377.140839,96.483276 
	C371.911865,96.962418 366.612518,96.673813 360.418152,96.673813 
	C362.116547,86.655373 363.655945,77.574692 365.195374,68.494019 
	C364.908264,68.327141 364.621185,68.160271 364.334076,67.993401 
	C361.627441,71.229446 358.895264,74.444565 356.220245,77.706551 
	C352.417511,82.343712 348.385651,86.826126 344.962402,91.731110 
	C342.143372,95.770309 338.595154,97.270004 333.936096,96.994499 
	C330.022430,96.763077 326.104828,96.597801 321.501068,96.369064 
	C323.341583,86.201241 325.041718,76.921982 326.696411,67.634613 
	C328.214050,59.116234 329.813141,50.608910 331.111053,42.056454 
	C331.659393,38.443367 333.237946,36.807549 336.936676,36.919178 
	C341.827271,37.066788 346.725677,36.955521 352.211700,36.955521 
	C350.324005,47.591404 348.676086,56.876358 346.801605,67.437866 
	C348.439484,65.597183 349.314331,64.614006 350.419586,63.364609 
z"/>
<path fill="#FEFCFC" opacity="1.000000" stroke="none" 
	d="
M171.714203,34.947975 
	C189.507416,36.897667 198.150360,49.276970 194.740189,67.298805 
	C190.585205,89.256767 166.918716,103.340958 145.637817,96.520187 
	C133.165619,92.522690 127.403435,80.926918 130.384628,65.824707 
	C134.295685,46.011955 149.634171,34.414574 171.714203,34.947975 
M154.734436,82.185524 
	C161.336761,84.254639 166.027786,82.922035 170.077591,77.542938 
	C174.511337,71.653908 175.837967,64.856003 174.742950,57.723087 
	C173.674576,50.763813 167.477142,47.721466 160.755798,50.459461 
	C150.697372,54.556843 146.576599,73.748535 154.734436,82.185524 
z"/>
<path fill="#FEFCFC" opacity="1.000000" stroke="none" 
	d="
M251.883972,76.103752 
	C254.833878,82.639626 257.647034,88.823532 260.737915,95.617958 
	C252.795975,97.655975 245.319794,97.540810 237.874115,95.936920 
	C236.837387,95.713600 235.939926,93.832153 235.388428,92.542732 
	C232.970978,86.890762 230.735413,81.161278 228.361984,75.489990 
	C227.756729,74.043724 226.888000,72.707718 225.474075,70.085396 
	C223.892731,78.594704 222.731522,85.701607 221.141205,92.711151 
	C220.804016,94.197319 218.979172,96.346703 217.704544,96.445450 
	C212.310989,96.863274 206.866440,96.622551 200.631943,96.622551 
	C202.011734,88.700653 203.210861,81.724365 204.444534,74.754189 
	C206.357697,63.944954 208.399857,53.157047 210.163040,42.323593 
	C210.767792,38.607857 212.247192,36.712551 216.249954,36.889717 
	C221.006012,37.100220 225.778534,36.939247 231.220963,36.939247 
	C229.939255,44.548397 228.846848,51.033676 227.754456,57.518951 
	C228.032288,57.706944 228.310120,57.894932 228.587936,58.082924 
	C232.954758,53.418678 237.753098,49.079636 241.576599,44.005966 
	C246.119507,37.977695 251.775909,35.984524 258.919098,36.768692 
	C261.837341,37.089050 264.783630,37.153824 269.258087,37.429974 
	C265.499115,41.510185 262.766510,44.486607 260.021698,47.451679 
	C258.437561,49.162910 256.793823,50.820534 255.246964,52.564419 
	C252.175690,56.026878 247.225418,59.244999 246.650665,63.100605 
	C246.072601,66.978233 249.868164,71.507866 251.883972,76.103752 
z"/>
<path fill="#FEFCFC" opacity="1.000000" stroke="none" 
	d="
M307.854980,58.995663 
	C309.503296,59.026649 310.670349,59.028835 311.832001,59.108788 
	C312.123566,59.128857 312.397919,59.398563 312.922211,59.686447 
	C312.976166,60.848431 313.137207,62.151348 313.080505,63.444714 
	C312.707336,71.952209 311.608856,73.004257 303.261536,73.004341 
	C301.428284,73.004356 299.595062,73.004349 297.761810,73.004349 
	C289.214172,73.004372 289.214172,73.004372 288.349762,82.218597 
	C295.353729,82.218597 302.330261,82.434067 309.284912,82.137215 
	C313.409973,81.961136 314.232605,83.783684 313.598114,87.235695 
	C313.447510,88.055153 313.292480,88.873909 313.153625,89.695381 
	C311.918396,97.002899 311.919342,97.003952 304.787384,97.004135 
	C294.621246,97.004402 284.454559,97.061417 274.289337,96.964211 
	C271.536407,96.937897 268.787903,96.443253 265.494476,96.108360 
	C267.494141,84.673492 269.365479,73.896065 271.267334,63.124027 
	C272.511322,56.077991 273.949829,49.062126 275.002747,41.988323 
	C275.506195,38.605888 276.870972,36.951309 280.413452,36.970276 
	C294.058350,37.043331 307.703918,36.999905 322.520569,36.999905 
	C321.798370,41.076057 321.417755,44.950054 320.280975,48.587761 
	C319.940308,49.678009 317.507202,50.696648 316.002319,50.742104 
	C308.694763,50.962833 301.376892,50.841782 293.685394,50.841782 
	C293.209320,53.557201 292.787689,55.962059 292.255829,58.995651 
	C297.521759,58.995651 302.446747,58.995651 307.854980,58.995663 
z"/>
<path fill="#FBFAF8" opacity="1.000000" stroke="none" 
	d="
M48.436607,90.059471 
	C42.121410,86.972694 39.291763,81.091049 37.465599,74.975060 
	C34.427914,64.801590 35.746288,54.914288 41.316010,45.702213 
	C43.175499,42.626705 45.515369,41.905167 48.214325,44.299057 
	C52.990734,48.535580 57.581501,52.981392 61.965454,57.074017 
	C69.976234,37.037376 85.615021,25.573895 107.720901,22.461843 
	C110.381065,22.087347 112.417175,21.957796 113.384186,25.407452 
	C118.483978,43.600250 117.753571,61.152664 106.758316,77.041695 
	C97.257629,90.770935 83.604828,97.584282 66.641846,97.649162 
	C72.647118,94.556221 78.880478,91.893082 85.403397,89.052795 
	C87.847870,87.023430 90.002777,85.171196 92.450562,83.165451 
	C94.096802,81.336395 95.450165,79.660858 97.054535,77.764450 
	C97.983788,76.403664 98.662041,75.263748 99.584991,73.911446 
	C100.538544,72.132645 101.247398,70.566231 102.169510,68.763756 
	C102.816307,67.345612 103.249840,66.163521 103.828819,64.663651 
	C104.247292,63.227943 104.520325,62.110016 104.922646,60.625355 
	C105.232491,59.244232 105.413048,58.229843 105.733597,56.816154 
	C105.630455,50.630371 105.376648,44.844315 105.148720,39.057240 
	C105.035950,36.193855 103.529305,35.656170 100.859444,35.818275 
	C84.214569,36.828888 66.334618,50.924191 61.458572,67.069206 
	C60.830002,67.545822 60.413857,67.858055 59.778633,68.098434 
	C59.559559,68.026573 59.101959,67.965759 59.057323,67.609009 
	C59.290001,66.165993 59.567314,65.079727 59.806919,63.665344 
	C58.197838,61.852081 56.626469,60.366928 54.985085,58.549530 
	C52.339359,56.113602 49.763657,54.009914 46.354301,51.225342 
	C44.815636,55.863422 43.648998,59.380089 42.326263,63.231140 
	C42.130142,65.044228 42.090122,66.522926 41.960587,68.395966 
	C41.954178,69.859818 42.037277,70.929352 42.060738,72.320770 
	C42.157425,73.491035 42.313759,74.339401 42.490036,75.552086 
	C42.736732,76.609062 42.963486,77.301720 43.189316,78.325813 
	C43.763012,79.825676 44.337635,80.994110 44.927315,82.441536 
	C45.241356,83.167984 45.540337,83.615448 45.908546,84.400894 
	C46.734375,86.152527 47.490982,87.566162 48.242218,89.258934 
	C48.303440,89.711868 48.370026,89.885666 48.436607,90.059471 
z"/>
<path fill="#FDF6F7" opacity="1.000000" stroke="none" 
	d="
M205.141296,22.247435 
	C207.779739,22.540575 210.012894,22.853016 213.183731,23.296644 
	C209.242493,29.777529 205.943924,35.669880 202.091568,41.174706 
	C201.234055,42.400043 198.427551,42.261433 195.559830,42.996510 
	C196.981689,36.128677 197.862595,30.411280 199.522919,24.929970 
	C199.915253,23.634708 202.928452,23.133318 205.141296,22.247435 
z"/>
<path fill="#FDF6F7" opacity="1.000000" stroke="none" 
	d="
M358.008636,34.950974 
	C358.337708,33.408833 358.645233,32.290699 358.877380,31.157133 
	C360.797882,21.778017 363.223480,20.435516 373.677856,23.725691 
	C370.059784,29.727633 366.728882,35.711899 362.848053,41.315300 
	C362.044128,42.476044 359.197266,42.221867 356.509796,42.783157 
	C357.143646,39.524464 357.547882,37.446148 358.008636,34.950974 
z"/>
<path fill="#8CC746" opacity="1.000000" stroke="none" 
	d="
M85.113838,89.229935 
	C78.880478,91.893082 72.647118,94.556221 66.206650,97.527512 
	C64.303185,97.899574 62.606838,97.963501 60.473038,97.577835 
	C60.023926,96.085258 60.012268,95.042274 60.344368,93.847649 
	C67.599892,91.930870 74.494652,90.092659 81.440857,88.475449 
	C82.546684,88.217979 83.883705,88.953499 85.113838,89.229935 
z"/>
<path fill="#91C948" opacity="1.000000" stroke="none" 
	d="
M60.000610,93.999298 
	C60.012268,95.042274 60.023926,96.085258 60.051857,97.519066 
	C56.297825,95.474739 52.527519,93.039581 48.596909,90.331947 
	C48.370026,89.885666 48.303440,89.711868 48.611343,89.223831 
	C51.989674,88.271133 54.993511,87.632668 58.128048,87.283554 
	C58.511417,88.376427 58.764084,89.179955 59.012444,90.341194 
	C59.338966,91.799042 59.669788,92.899170 60.000610,93.999298 
z"/>
<path fill="#DA2832" opacity="1.000000" stroke="none" 
	d="
M154.380096,81.994400 
	C146.576599,73.748535 150.697372,54.556843 160.755798,50.459461 
	C167.477142,47.721466 173.674576,50.763813 174.742950,57.723087 
	C175.837967,64.856003 174.511337,71.653908 170.077591,77.542938 
	C166.027786,82.922035 161.336761,84.254639 154.380096,81.994400 
z"/>
<path fill="#0EB04E" opacity="1.000000" stroke="none" 
	d="
M61.670994,66.904823 
	C66.334618,50.924191 84.214569,36.828888 100.859444,35.818275 
	C103.529305,35.656170 105.035950,36.193855 105.148720,39.057240 
	C105.376648,44.844315 105.630455,50.630371 105.300186,56.792915 
	C102.458466,57.620499 100.177246,58.015831 97.923973,58.532898 
	C85.835808,61.306816 73.754601,64.111061 61.670994,66.904823 
z"/>
<path fill="#1DB24C" opacity="1.000000" stroke="none" 
	d="
M61.458572,67.069206 
	C73.754601,64.111061 85.835808,61.306816 97.923973,58.532898 
	C100.177246,58.015831 102.458466,57.620499 105.160194,57.192223 
	C105.413048,58.229843 105.232491,59.244232 104.527573,60.635269 
	C101.585747,61.531326 99.161865,62.022655 96.751923,62.574879 
	C84.535103,65.374290 72.321907,68.189507 60.080009,70.646065 
	C60.034290,69.585396 60.015999,68.877838 59.997711,68.170288 
	C60.413857,67.858055 60.830002,67.545822 61.458572,67.069206 
z"/>
<path fill="#2DB54A" opacity="1.000000" stroke="none" 
	d="
M60.107437,70.999184 
	C72.321907,68.189507 84.535103,65.374290 96.751923,62.574879 
	C99.161865,62.022655 101.585747,61.531326 104.398285,61.002003 
	C104.520325,62.110016 104.247292,63.227943 103.440681,64.674454 
	C100.496201,65.532417 98.081001,66.042992 95.675140,66.594353 
	C83.477585,69.389748 71.282463,72.195724 59.125507,74.658966 
	C59.417458,73.212830 59.670387,72.105705 59.969345,70.998871 
	C60.015377,70.999146 60.107437,70.999184 60.107437,70.999184 
z"/>
<path fill="#3CB848" opacity="1.000000" stroke="none" 
	d="
M59.086491,74.997993 
	C71.282463,72.195724 83.477585,69.389748 95.675140,66.594353 
	C98.081001,66.042992 100.496201,65.532417 103.295235,64.992233 
	C103.249840,66.163521 102.816307,67.345612 101.764206,68.773048 
	C87.115265,72.336067 73.084892,75.653740 59.030235,78.646942 
	C58.978210,77.888985 58.950462,77.455498 58.938499,76.684624 
	C58.946194,75.897583 58.938095,75.447929 58.969124,74.998169 
	C59.008247,74.998055 59.086491,74.997993 59.086491,74.997993 
z"/>
<path fill="#4CBB47" opacity="1.000000" stroke="none" 
	d="
M59.054516,78.971413 
	C73.084892,75.653740 87.115265,72.336067 101.550949,69.009102 
	C101.247398,70.566231 100.538544,72.132645 99.138031,73.888474 
	C96.976700,74.215820 95.465584,74.180046 94.043846,74.519058 
	C82.356407,77.305931 70.685570,80.162437 59.004581,82.595596 
	C59.017815,81.119385 59.036163,80.045395 59.054516,78.971413 
z"/>
<path fill="#5ABD45" opacity="1.000000" stroke="none" 
	d="
M59.009697,82.997826 
	C70.685570,80.162437 82.356407,77.305931 94.043846,74.519058 
	C95.465584,74.180046 96.976700,74.215820 98.893341,74.100861 
	C98.662041,75.263748 97.983788,76.403664 96.648651,77.767166 
	C93.230621,78.521011 90.459686,79.005226 87.710098,79.589806 
	C77.837723,81.688782 67.972549,83.821678 58.083286,85.576782 
	C58.048599,84.479317 58.035286,83.746841 58.268890,83.009796 
	C58.515816,83.005234 59.009697,82.997826 59.009697,82.997826 
z"/>
<path fill="#6AC044" opacity="1.000000" stroke="none" 
	d="
M58.104660,85.941757 
	C67.972549,83.821678 77.837723,81.688782 87.710098,79.589806 
	C90.459686,79.005226 93.230621,78.521011 96.397644,77.988037 
	C95.450165,79.660858 94.096802,81.336395 92.183121,82.948502 
	C89.704185,83.102394 87.742767,83.135162 85.874207,83.568413 
	C76.907951,85.647385 67.966812,87.834663 59.016750,89.983475 
	C58.764084,89.179955 58.511417,88.376427 58.151524,87.020134 
	C58.064419,86.292160 58.084538,86.116959 58.104660,85.941757 
z"/>
<path fill="#79C341" opacity="1.000000" stroke="none" 
	d="
M59.012444,90.341194 
	C67.966812,87.834663 76.907951,85.647385 85.874207,83.568413 
	C87.742767,83.135162 89.704185,83.102394 91.890244,83.102020 
	C90.002777,85.171196 87.847870,87.023430 85.403397,89.052803 
	C83.883705,88.953499 82.546684,88.217979 81.440857,88.475449 
	C74.494652,90.092659 67.599892,91.930870 60.344368,93.847649 
	C59.669788,92.899170 59.338966,91.799042 59.012444,90.341194 
z"/>
<path fill="#1BB352" opacity="1.000000" stroke="none" 
	d="
M42.482357,62.896759 
	C43.648998,59.380089 44.815636,55.863422 46.354301,51.225342 
	C49.763657,54.009914 52.339359,56.113602 54.845947,58.884674 
	C50.678673,60.666958 46.580517,61.781860 42.482357,62.896759 
z"/>
<path fill="#2EB64D" opacity="1.000000" stroke="none" 
	d="
M42.326263,63.231140 
	C46.580517,61.781860 50.678673,60.666958 54.915966,59.216911 
	C56.626469,60.366928 58.197838,61.852081 59.426682,63.695808 
	C53.406139,65.370132 47.728119,66.685883 42.050102,68.001633 
	C42.090122,66.522926 42.130142,65.044228 42.326263,63.231140 
z"/>
<path fill="#3BB848" opacity="1.000000" stroke="none" 
	d="
M41.960587,68.395966 
	C47.728119,66.685883 53.406139,65.370132 59.464394,64.023918 
	C59.567314,65.079727 59.290001,66.165993 58.655251,67.643028 
	C52.905338,69.355484 47.512859,70.677185 42.120380,71.998878 
	C42.037277,70.929352 41.954178,69.859818 41.960587,68.395966 
z"/>
<path fill="#48BA46" opacity="1.000000" stroke="none" 
	d="
M42.060738,72.320770 
	C47.512859,70.677185 52.905338,69.355484 58.699890,67.999771 
	C59.101959,67.965759 59.559559,68.026573 59.778633,68.098434 
	C60.015999,68.877838 60.034290,69.585396 60.080009,70.646065 
	C60.107437,70.999184 60.015377,70.999146 59.584221,71.029709 
	C53.592075,72.436104 48.031082,73.811943 42.470089,75.187775 
	C42.313759,74.339401 42.157425,73.491035 42.060738,72.320770 
z"/>
<path fill="#7EC442" opacity="1.000000" stroke="none" 
	d="
M58.083286,85.576782 
	C58.084538,86.116959 58.064419,86.292160 58.020824,86.730782 
	C54.993511,87.632668 51.989674,88.271133 48.616714,88.944702 
	C47.490982,87.566162 46.734375,86.152527 46.310349,84.363037 
	C49.050976,83.393097 51.433357,82.601562 53.877335,82.283798 
	C55.204781,82.111214 56.637005,82.744545 58.021969,83.014359 
	C58.035286,83.746841 58.048599,84.479317 58.083286,85.576782 
z"/>
<path fill="#6AC044" opacity="1.000000" stroke="none" 
	d="
M58.268890,83.009796 
	C56.637005,82.744545 55.204781,82.111214 53.877335,82.283798 
	C51.433357,82.601562 49.050976,83.393097 46.241119,84.025040 
	C45.540337,83.615448 45.241356,83.167984 45.138863,82.139664 
	C49.864475,80.046539 54.393597,78.534279 58.922714,77.022018 
	C58.950462,77.455498 58.978210,77.888985 59.030235,78.646942 
	C59.036163,80.045395 59.017815,81.119385 59.004581,82.595596 
	C59.009697,82.997826 58.515816,83.005234 58.268890,83.009796 
z"/>
<path fill="#55BD47" opacity="1.000000" stroke="none" 
	d="
M42.490036,75.552086 
	C48.031082,73.811943 53.592075,72.436104 59.538193,71.029427 
	C59.670387,72.105705 59.417458,73.212830 59.125507,74.658966 
	C59.086491,74.997993 59.008247,74.998055 58.559753,75.000900 
	C53.137581,76.000618 48.163910,76.997498 43.190239,77.994385 
	C42.963486,77.301720 42.736732,76.609062 42.490036,75.552086 
z"/>
<path fill="#61BF46" opacity="1.000000" stroke="none" 
	d="
M43.189316,78.325806 
	C48.163910,76.997498 53.137581,76.000618 58.520626,75.001007 
	C58.938095,75.447929 58.946194,75.897583 58.938503,76.684616 
	C54.393597,78.534279 49.864475,80.046539 45.123810,81.860672 
	C44.337635,80.994110 43.763012,79.825676 43.189316,78.325806 
z"/>
</svg>