<svg viewBox="0 0 100 100" xmlns="http://www.w3.org/2000/svg">
    <path d="M38.913,77.449c9.491,0,18.119-3.319,24.849-8.937L93.96,98.301c0.69,0.681,1.553,1.021,2.502,1.021s1.812-0.34,2.502-1.021 c1.38-1.361,1.38-3.574,0-4.936L68.766,63.575c5.608-6.639,9.06-15.235,9.06-24.512c0-21.192-17.429-38.386-38.913-38.386 C17.515,0.678,0,17.956,0,39.063C0,60.256,17.515,77.449,38.913,77.449z M38.913,7.657c17.602,0,31.838,14.129,31.838,31.406 c0,17.363-14.236,31.406-31.838,31.406c-17.601,0-31.838-14.128-31.838-31.406S21.398,7.657,38.913,7.657z" />
</svg>