<?xml version="1.0" encoding="utf-8" ?>
<svg xmlns="http://www.w3.org/2000/svg" xmlns:xlink="http://www.w3.org/1999/xlink" width="14.8438" height="14.8438" viewBox="0 0 14.8438 14.8438">
	<defs>
		<clipPath id="clipPath0633499453">
			<path d="M0 0L14.8438 0L14.8438 14.8438L0 14.8438L0 0Z" fill-rule="nonzero" transform="matrix(1 0 0 1 0 0)"/>
		</clipPath>
	</defs>
	<g clip-path="url(#clipPath0633499453)">
		<path d="M11.8487 10.043L9.12082 7.51224C9.44919 7.10669 9.69978 6.6633 9.87258 6.18207C10.0454 5.70084 10.1315 5.20662 10.1309 4.69939C10.1309 2.10816 7.85852 0 5.06545 0C2.27238 0 0 2.10816 0 4.69939C0 7.29062 2.27238 9.39878 5.06545 9.39878C5.61219 9.39933 6.14491 9.31945 6.66362 9.15913C7.18233 8.99882 7.66026 8.76634 8.09741 8.4617L10.8252 10.9924C10.9686 11.1113 11.1364 11.1682 11.3286 11.1632C11.5208 11.1582 11.6848 11.0927 11.8208 10.9666C11.9568 10.8404 12.0274 10.6882 12.0328 10.5099C12.0382 10.3316 11.9768 10.1759 11.8487 10.043ZM1.44727 4.69939C1.44727 3.77246 1.80052 2.98128 2.50701 2.32584C3.2135 1.6704 4.06631 1.34268 5.06545 1.34268C6.06458 1.34268 6.91739 1.6704 7.62388 2.32584C8.33037 2.98128 8.68362 3.77246 8.68362 4.69939C8.68362 5.62632 8.33037 6.4175 7.62388 7.07294C6.91739 7.72837 6.06458 8.0561 5.06545 8.0561C4.06681 8.05499 3.21442 7.72687 2.50828 7.07176C1.80214 6.41665 1.44847 5.62586 1.44727 4.69939Z" fill-rule="nonzero" transform="matrix(1 0 0 1 1.39161 1.82736)" fill="rgb(107, 114, 128)"/>
	</g>
</svg>
